<svg id="logo_normal" data-name="logo normal" xmlns="http://www.w3.org/2000/svg" width="129.313" height="25.863" viewBox="0 0 129.313 25.863">
  <path id="Trazado_1" data-name="Trazado 1" d="M60.655,56.068H57.027V53.544a7.775,7.775,0,0,1-6.29,2.808,7.211,7.211,0,0,1-4.888-1.671,5.592,5.592,0,0,1-1.939-4.463,4.694,4.694,0,0,1,2.062-4.177,9.877,9.877,0,0,1,5.583-1.387h5.153v-.712q0-3.768-4.193-3.769a9.846,9.846,0,0,0-5.477,1.92L45.26,39.607a12.244,12.244,0,0,1,7.823-2.738,8.465,8.465,0,0,1,5.455,1.689q2.117,1.688,2.117,5.314Zm-3.981-7.04v-1.6H52.2q-4.306,0-4.3,2.7a2.4,2.4,0,0,0,1.066,2.115,5.2,5.2,0,0,0,2.968.728A5.392,5.392,0,0,0,55.25,51.91,3.421,3.421,0,0,0,56.674,49.028Z" transform="translate(-27.298 -36.869)" fill="#3f8dc9"/>
  <path id="Trazado_2" data-name="Trazado 2" d="M75.95,48.353H61.124a4.308,4.308,0,0,0,1.884,3.324,7.326,7.326,0,0,0,9.386-.978l2.276,2.489a10.578,10.578,0,0,1-7.964,3.164A9.483,9.483,0,0,1,59.932,53.7a9.337,9.337,0,0,1-2.79-7.111A9.2,9.2,0,0,1,59.985,39.5a9.548,9.548,0,0,1,6.7-2.63A9.7,9.7,0,0,1,73.248,39.2a8.025,8.025,0,0,1,2.7,6.416ZM61.124,45.224H71.97a4.557,4.557,0,0,0-1.5-3.663,5.456,5.456,0,0,0-3.68-1.28,6.3,6.3,0,0,0-3.929,1.335A4.306,4.306,0,0,0,61.124,45.224Z" transform="translate(-20.411 -36.869)" fill="#808a8e"/>
  <path id="Trazado_3" data-name="Trazado 3" d="M85.008,47.295V37.056h3.984V55.971H85.008v-3.45A7.423,7.423,0,0,1,73.542,54.3a7.607,7.607,0,0,1-1.972-5.652V37.056h3.981V47.438q0,5.225,4.338,5.227A5.216,5.216,0,0,0,83.48,51.3,5.1,5.1,0,0,0,85.008,47.295Z" transform="translate(-12.902 -36.772)" fill="#808a8e"/>
  <path id="Trazado_4" data-name="Trazado 4" d="M96.057,40.888a5.283,5.283,0,0,0-4.444,1.919,8.176,8.176,0,0,0-1.493,5.154v8.107H86.137V37.153h3.982v3.8a8.267,8.267,0,0,1,2.614-2.916,6.287,6.287,0,0,1,3.5-1.172l.035,4.019Z" transform="translate(-5.32 -36.869)" fill="#808a8e"/>
  <path id="Trazado_5" data-name="Trazado 5" d="M108.042,47.295V37.056h3.982V55.971h-3.982v-3.45A7.423,7.423,0,0,1,96.576,54.3,7.6,7.6,0,0,1,94.6,48.647V37.056h3.984V47.438q0,5.225,4.336,5.227a5.207,5.207,0,0,0,3.59-1.37A5.083,5.083,0,0,0,108.042,47.295Z" transform="translate(-0.914 -36.772)" fill="#808a8e"/>
  <path id="Trazado_6" data-name="Trazado 6" d="M123.229,50.415a5.321,5.321,0,0,1-1.957,4.32,7.6,7.6,0,0,1-5.015,1.618,13.451,13.451,0,0,1-4.283-.747,12.8,12.8,0,0,1-3.927-2.1l1.92-3.093a10.725,10.725,0,0,0,6.4,2.488,3.324,3.324,0,0,0,2.133-.622,1.93,1.93,0,0,0,.783-1.581q0-1.421-3.769-2.56c-.19-.07-.333-.117-.426-.141q-5.9-1.6-5.9-5.332a5.054,5.054,0,0,1,2.047-4.213,8.43,8.43,0,0,1,5.314-1.583,11.049,11.049,0,0,1,6.185,1.92l-1.492,2.951a8.915,8.915,0,0,0-5.013-1.53,4.578,4.578,0,0,0-2.313.515,1.679,1.679,0,0,0-.888,1.546,1.414,1.414,0,0,0,.924,1.352,8.941,8.941,0,0,0,1.8.6c.769.19,1.452.38,2.044.569s1.168.4,1.726.64a11.232,11.232,0,0,1,1.8,1A4.448,4.448,0,0,1,123.229,50.415Z" transform="translate(6.084 -36.869)" fill="#808a8e"/>
  <rect id="Rectángulo_1" data-name="Rectángulo 1" width="33.223" height="3.854" transform="translate(0 22.009)" fill="#3f8dc9"/>
</svg>
